<svg width="59" height="57" viewBox="0 0 59 57" fill="none" xmlns="http://www.w3.org/2000/svg">
<path fill-rule="evenodd" clip-rule="evenodd" d="M30.4752 3.97408L30.4752 3.9505C30.4752 1.7687 28.7066 0 26.5248 0C24.343 0 22.5743 1.7687 22.5743 3.9505C22.5743 4.47207 22.6753 4.97004 22.859 5.42588L22.8071 5.44404C23.0187 5.83989 23.1386 6.29207 23.1386 6.77227C23.1386 8.3307 21.8753 9.59405 20.3168 9.59405C19.0068 9.59405 17.9054 8.7014 17.5875 7.49118C16.8652 6.70249 15.827 6.20792 14.6733 6.20792C12.4915 6.20792 10.7228 7.97661 10.7228 10.1584C10.7228 11.1984 11.1246 12.1445 11.7816 12.85L11.725 12.9137C12.4973 13.6348 12.9802 14.662 12.9802 15.802C12.9802 17.9838 11.2115 19.7525 9.0297 19.7525C7.10429 19.7525 5.5006 18.375 5.15028 16.5518C4.77191 16.4314 4.36879 16.3663 3.9505 16.3663C1.7687 16.3663 0 18.135 0 20.3168C0 22.4986 1.7687 24.2673 3.9505 24.2673C4.67807 24.2673 5.35971 24.0706 5.94513 23.7275C5.38008 25.882 5.07921 28.1435 5.07921 30.4752C5.07921 45.1245 16.9547 57 31.604 57C46.2532 57 58.1287 45.1245 58.1287 30.4752C58.1287 15.826 46.2532 3.9505 31.604 3.9505C31.2258 3.9505 30.8495 3.95841 30.4752 3.97408ZM20.3168 8.46535C21.2519 8.46535 22.0099 7.70733 22.0099 6.77228C22.0099 5.83722 21.2519 5.07921 20.3168 5.07921C19.3818 5.07921 18.6238 5.83722 18.6238 6.77228C18.6238 7.70733 19.3818 8.46535 20.3168 8.46535ZM9.0297 18.6238C10.5881 18.6238 11.8515 17.3604 11.8515 15.802C11.8515 14.2436 10.5881 12.9802 9.0297 12.9802C7.47128 12.9802 6.20792 14.2436 6.20792 15.802C6.20792 17.3604 7.47128 18.6238 9.0297 18.6238ZM46.544 15.4203C43.2776 12.5912 39.3297 11.1766 34.7002 11.1766C33.5686 11.1766 32.1604 11.376 30.4758 11.7746C28.8941 12.1733 27.5502 12.6298 26.4443 13.1442C25.0683 13.7486 23.763 14.4752 22.5285 15.3239C21.5898 15.8769 20.3231 16.8928 18.7285 18.3716C17.4039 19.7476 16.4587 20.8793 15.8929 21.7666C13.9511 24.6986 12.9802 27.4892 12.9802 30.1382V30.524C12.9802 31.2828 13.0702 32.0286 13.2503 32.7616C13.2503 33.3274 13.7904 33.8547 14.8706 34.3434C16.9667 35.1535 18.7735 35.5586 20.2909 35.5586C20.5738 35.5586 20.8117 35.5329 21.0046 35.4814C21.6348 35.3914 21.9498 35.1728 21.9498 34.8256C21.9498 34.7742 21.9434 34.7227 21.9305 34.6713C20.426 32.4723 19.6737 30.2926 19.6737 28.1321C19.6737 25.4959 20.6831 23.014 22.7021 20.6864C23.7438 19.5804 24.6182 18.7896 25.3255 18.3138C28.3861 16.1919 31.2988 15.131 34.0637 15.131H34.623C38.018 15.131 40.8407 16.0119 43.0911 17.7737C45.3159 19.664 46.4282 22.0174 46.4282 24.8336C46.4282 26.8655 45.8174 28.7687 44.5957 30.5433C42.2681 33.6297 38.9761 35.1728 34.7195 35.1728C34.578 35.1728 34.2758 35.1664 33.8129 35.1535C32.5269 35.0506 31.8839 34.9671 31.8839 34.9028V34.8835L35.7997 20.2427C35.7997 20.0755 35.5039 19.7348 34.9124 19.2204C33.4078 18.1016 32.2762 17.5422 31.5174 17.5422C31.2474 17.5422 31.0416 17.6515 30.9002 17.8701C29.6528 23.5284 28.5854 28.235 27.6981 31.99C25.8206 39.5515 24.5475 44.7597 23.8788 47.6146C23.8788 48.2447 24.3803 48.9777 25.3834 49.8136C26.8365 50.8166 27.936 51.3181 28.6819 51.3181C28.9262 51.3181 29.0741 51.2217 29.1255 51.0288C29.0484 50.6173 29.0098 50.1543 29.0098 49.64C29.0098 47.3252 29.5885 43.8467 30.7459 39.2043C32.0061 39.2686 32.9063 39.3008 33.4464 39.3008C40.3392 39.3008 45.4316 37.359 48.7237 33.4753C50.4855 31.1863 51.3664 28.7301 51.3664 26.1067V25.6631C51.3664 24.1328 51.0127 22.4803 50.3054 20.7057C49.8682 19.7026 49.3731 18.8089 48.8201 18.0244C48.6272 17.6129 47.8685 16.7449 46.544 15.4203Z" fill="white"/>
</svg>
